<svg xmlns="http://www.w3.org/2000/svg" viewBox="0 0 512 512">
  <defs>
    <linearGradient id="grad1" x1="0%" y1="0%" x2="100%" y2="100%">
      <stop offset="0%" style="stop-color:#6366f1;stop-opacity:1" />
      <stop offset="100%" style="stop-color:#a855f7;stop-opacity:1" />
    </linearGradient>
  </defs>
  <rect width="512" height="512" rx="100" fill="#0f172a" />
  <path d="M140 140h232v232H140z" fill="none" />
  <path d="M360 110H152c-22.09 0-40 17.91-40 40v212c0 22.09 17.91 40 40 40h208c22.09 0 40-17.91 40-40V150c0-22.09-17.91-40-40-40zm-20 252H152c-4.42 0-8-3.58-8-8V150c0-4.42 3.58-8 8-8h188c4.42 0 8 3.58 8 8v204c0 4.42-3.58 8-8 8z" fill="url(#grad1)" />
  <path d="M180 180h152v20H180zm0 50h152v20H180zm0 50h152v20H180zm0 50h100v20H180z" fill="#94a3b8" />
</svg>
